<svg width="18" height="18" viewBox="0 0 18 18" fill="none" xmlns="http://www.w3.org/2000/svg">
<path d="M9.09793 17.3001C6.81468 17.3001 4.62468 16.393 3.01028 14.7785C1.39577 13.1638 0.488678 10.9741 0.488678 8.69083C0.488678 6.40759 1.39577 4.21759 3.01028 2.60318C4.62492 0.988678 6.81468 0.0815849 9.09793 0.0815849C11.3812 0.0815849 13.5712 0.988678 15.1856 2.60318C16.8001 4.21783 17.7072 6.40759 17.7072 8.69083C17.7044 10.9733 16.7966 13.1617 15.1826 14.7755C13.5686 16.3894 11.3802 17.2973 9.09793 17.3001V17.3001ZM12.418 6.47655V6.47642C12.5689 6.33059 12.655 6.13026 12.6568 5.92035C12.6587 5.71045 12.5761 5.50855 12.4277 5.36009C12.2792 5.21163 12.0773 5.12909 11.8674 5.13093C11.6575 5.13276 11.4572 5.21884 11.3113 5.36979L9.09793 7.584L6.88452 5.36979C6.68575 5.17783 6.4005 5.10485 6.13387 5.17796C5.86736 5.25108 5.65917 5.45927 5.58605 5.72578C5.51294 5.99242 5.58592 6.27766 5.77787 6.47643L7.99128 8.69064L5.77787 10.9049C5.62693 11.0507 5.54085 11.251 5.53901 11.4609C5.53718 11.6708 5.61972 11.8727 5.76818 12.0212C5.91663 12.1697 6.11853 12.2522 6.32844 12.2504C6.53834 12.2485 6.73867 12.1624 6.88451 12.0115L9.09792 9.79728L11.3113 12.0115C11.4572 12.1624 11.6575 12.2485 11.8674 12.2504C12.0773 12.2522 12.2792 12.1696 12.4277 12.0212C12.5761 11.8727 12.6587 11.6708 12.6568 11.4609C12.655 11.251 12.5689 11.0507 12.418 10.9049L10.2046 8.69064L12.418 6.47655Z" fill="#E6E6E6"/>
</svg>
