<svg width="18" height="18" viewBox="0 0 18 18" fill="none" xmlns="http://www.w3.org/2000/svg">
<path d="M8.97375 17.7208C6.6905 17.7208 4.50051 16.8137 2.8861 15.1992C1.27159 13.5845 0.364502 11.3948 0.364502 9.11152C0.364502 6.82827 1.27159 4.63828 2.8861 3.02387C4.50074 1.40936 6.6905 0.50227 8.97375 0.50227C11.257 0.50227 13.447 1.40936 15.0614 3.02387C16.6759 4.63851 17.583 6.82827 17.583 9.11152C17.5802 11.394 16.6724 13.5824 15.0584 15.1961C13.4444 16.8101 11.256 17.718 8.97375 17.7208ZM12.2938 6.89724C12.4447 6.7514 12.5308 6.55095 12.5327 6.34104C12.5345 6.13113 12.4519 5.92923 12.3035 5.78077C12.155 5.63231 11.9531 5.54978 11.7432 5.55161C11.5333 5.55344 11.333 5.63953 11.1872 5.79047L8.97375 8.00468L6.76034 5.79047C6.56158 5.59852 6.27632 5.52554 6.00969 5.59865C5.74319 5.67176 5.535 5.87996 5.46187 6.14647C5.38876 6.4131 5.46174 6.69834 5.6537 6.89711L7.86711 9.11133L5.6537 11.3255C5.50276 11.4714 5.41667 11.6717 5.41484 11.8816C5.413 12.0915 5.49555 12.2934 5.644 12.4419C5.79245 12.5903 5.99435 12.6729 6.20426 12.671C6.41417 12.6692 6.61449 12.5831 6.76033 12.4322L8.97374 10.218L11.1872 12.4322C11.333 12.5831 11.5333 12.6692 11.7432 12.671C11.9531 12.6729 12.155 12.5903 12.3035 12.4419C12.4519 12.2934 12.5345 12.0915 12.5326 11.8816C12.5308 11.6717 12.4447 11.4714 12.2938 11.3255L10.0804 9.11133L12.2938 6.89724Z" fill="#E41D1D"/>
</svg>
