<svg width="18" height="18" viewBox="0 0 18 18" fill="none" xmlns="http://www.w3.org/2000/svg">
<circle cx="8.97375" cy="8.84951" r="8.60925" fill="#FFF3F3"/>
<path d="M12.7154 5.77727H11.6397C11.6253 5.77229 11.6104 5.76905 11.5952 5.76756H10.4499V4.81767C10.45 4.74629 10.422 4.67775 10.3721 4.62677C10.3222 4.57579 10.2543 4.54638 10.183 4.54489H7.4743C7.40194 4.54489 7.33257 4.57359 7.28146 4.62476C7.23028 4.67593 7.20152 4.74531 7.20152 4.81767V5.76756H6.06203C6.04687 5.76905 6.03191 5.77229 6.01753 5.77727H4.94184C4.84435 5.77727 4.75431 5.82922 4.7056 5.91363C4.65689 5.99803 4.65689 6.102 4.7056 6.1864C4.75431 6.27081 4.84435 6.32282 4.94184 6.32282H5.81822L6.52636 12.9104C6.53393 12.9774 6.56593 13.0393 6.61627 13.0843C6.66653 13.1293 6.73163 13.1541 6.79913 13.1541H10.8619C10.9287 13.1532 10.9929 13.1278 11.0424 13.083C11.0919 13.0381 11.1233 12.9768 11.1308 12.9104L11.8389 6.33244H12.7153C12.8128 6.33244 12.9029 6.28049 12.9516 6.19608C13.0003 6.11168 13.0003 6.00765 12.9516 5.92331C12.9029 5.83891 12.8128 5.78689 12.7153 5.78689L12.7154 5.77727ZM7.75296 5.09044H9.90426V5.76756H7.75296V5.09044ZM10.6143 12.6047H7.04288L6.36577 6.3325H11.2914L10.6143 12.6047Z" fill="#E41D1D"/>
<path d="M8.82874 11.9663C8.9011 11.9663 8.97047 11.9375 9.02165 11.8864C9.07282 11.8353 9.10152 11.7659 9.10152 11.6935V7.24383C9.10152 7.14634 9.04957 7.0563 8.96516 7.00759C8.88076 6.95881 8.77673 6.95881 8.69233 7.00759C8.60792 7.0563 8.55597 7.14634 8.55597 7.24383V11.6935C8.55597 11.7659 8.58467 11.8353 8.63584 11.8864C8.68701 11.9375 8.75639 11.9663 8.82875 11.9663H8.82874Z" fill="#E41D1D"/>
<path d="M7.75498 11.9643H7.76658C7.83861 11.9613 7.90649 11.9299 7.95547 11.877C8.00438 11.8241 8.03042 11.7539 8.02776 11.6819L7.86329 7.23218L7.86336 7.23211C7.86187 7.15924 7.83071 7.09006 7.77701 7.0407C7.72325 6.9914 7.65173 6.9662 7.57893 6.97093C7.5069 6.97398 7.43901 7.00539 7.3901 7.05831C7.34113 7.11124 7.31515 7.18139 7.31774 7.25343L7.48221 11.7031C7.48565 11.7733 7.51583 11.8395 7.56662 11.8881C7.61734 11.9366 7.68477 11.9639 7.75498 11.9643L7.75498 11.9643Z" fill="#E41D1D"/>
<path d="M9.89263 11.9643H9.90228C9.97418 11.9659 10.0438 11.9393 10.0963 11.8901C10.1487 11.8409 10.1798 11.773 10.1828 11.7012L10.3473 7.2515H10.3472C10.3499 7.17947 10.3238 7.10932 10.2749 7.05639C10.226 7.00347 10.1581 6.97205 10.086 6.96901C10.0124 6.96143 9.93893 6.9852 9.88368 7.03456C9.82843 7.08386 9.79656 7.1542 9.79584 7.22831L9.62943 11.678H9.6295C9.62581 11.751 9.65159 11.8225 9.70108 11.8763C9.7505 11.9301 9.81955 11.9619 9.89263 11.9643L9.89263 11.9643Z" fill="#E41D1D"/>
</svg>
