<svg width="30" height="24" viewBox="0 0 30 24" fill="none" xmlns="http://www.w3.org/2000/svg">
<path d="M0 4.5C0 2.42893 1.67893 0.75 3.75 0.75H26.25C28.3211 0.75 30 2.42893 30 4.5V19.5C30 21.5711 28.3211 23.25 26.25 23.25H3.75C1.67893 23.25 0 21.5711 0 19.5V4.5ZM3.75 2.625C2.71447 2.625 1.875 3.46447 1.875 4.5V4.9067L15 12.7817L28.125 4.9067V4.5C28.125 3.46447 27.2855 2.625 26.25 2.625H3.75ZM28.125 7.0933L19.2974 12.3899L28.125 17.8223V7.0933ZM28.0617 19.9849L17.4859 13.4767L15 14.9683L12.5141 13.4767L1.93831 19.9849C2.15202 20.7854 2.88216 21.375 3.75 21.375H26.25C27.1178 21.375 27.848 20.7854 28.0617 19.9849ZM1.875 17.8223L10.7026 12.3899L1.875 7.0933V17.8223Z" fill="#2D31A6" fill-opacity="0.2"/>
</svg>
