<svg width="24" height="24" viewBox="0 0 24 24" fill="none" xmlns="http://www.w3.org/2000/svg">
<path d="M12 12C15.1066 12 17.625 9.4816 17.625 6.375C17.625 3.2684 15.1066 0.75 12 0.75C8.8934 0.75 6.375 3.2684 6.375 6.375C6.375 9.4816 8.8934 12 12 12ZM15.75 6.375C15.75 8.44607 14.0711 10.125 12 10.125C9.92893 10.125 8.25 8.44607 8.25 6.375C8.25 4.30393 9.92893 2.625 12 2.625C14.0711 2.625 15.75 4.30393 15.75 6.375Z" fill="#2D31A6" fill-opacity="0.2"/>
<path d="M23.25 21.375C23.25 23.25 21.375 23.25 21.375 23.25H2.625C2.625 23.25 0.75 23.25 0.75 21.375C0.75 19.5 2.625 13.875 12 13.875C21.375 13.875 23.25 19.5 23.25 21.375ZM21.375 21.3685C21.3723 20.9057 21.0867 19.5196 19.8148 18.2477C18.5918 17.0247 16.2921 15.75 12 15.75C7.7079 15.75 5.40816 17.0247 4.18518 18.2477C2.91329 19.5196 2.62767 20.9057 2.625 21.3685H21.375Z" fill="#2D31A6" fill-opacity="0.2"/>
</svg>
